<svg xmlns="http://www.w3.org/2000/svg" id="Layer_1" data-name="Layer 1" viewBox="0 0 233.75 233.75" transform="matrix(1, 0, 0, 1, 0, 0)"><defs fill="#000000"><style>.cls-1{fill:#008eff;}.cls-2{fill:#fff;}</style></defs><title>icon</title><circle class="cls-1" cx="116.88" cy="116.88" r="115" fill="#000000"/><path class="cls-2" d="M116.88,187.69a3,3,0,0,1-2.12-.88L41.08,113.14A3,3,0,0,1,43.21,108H72V49.06a3,3,0,0,1,6,0v62a3,3,0,0,1-3,3H50.45l66.43,66.44L183.31,114H158.74a3,3,0,0,1-3-3V49.06a3,3,0,0,1,6,0v59h28.81a3,3,0,0,1,2.13,5.13L119,186.81A3,3,0,0,1,116.88,187.69Z" fill="#000000"/><path class="cls-2" d="M113.87,139.22v-8.94c-5.14-.09-10.45-1.68-13.55-3.89l2.12-5.94a23.56,23.56,0,0,0,12.75,3.81c6.29,0,10.54-3.63,10.54-8.68,0-4.87-3.45-7.88-10-10.54-9-3.54-14.61-7.61-14.61-15.31,0-7.35,5.23-12.93,13.37-14.26V66.53H120v8.58a23.73,23.73,0,0,1,11.52,3.1l-2.22,5.85a21.42,21.42,0,0,0-11.15-3c-6.82,0-9.39,4.07-9.39,7.61,0,4.61,3.27,6.91,11,10.1,9.12,3.72,13.72,8.32,13.72,16.2,0,7-4.87,13.55-14,15.06v9.2Z" fill="#000000"/></svg>