<svg xmlns="http://www.w3.org/2000/svg" id="Layer_1" data-name="Layer 1" viewBox="0 0 233.75 233.75"><defs fill="#000000"><style>.cls-1{fill:#008dff;}.cls-2{fill:#fff;}</style></defs><title>icon</title><circle class="cls-1" cx="116.88" cy="116.88" r="115" fill="#000000"/><path class="cls-2" d="M194.83,115.8H184.5C182.94,81.58,154.9,54,120.09,52.51V40.27a3,3,0,0,0-6,0V52.51C79.28,54,51.25,81.58,49.69,115.8H38.92a3,3,0,0,0,0,6H49.69c1.56,34.23,29.59,61.79,64.4,63.3v8.38a3,3,0,0,0,6,0V185.1c34.81-1.51,62.85-29.07,64.41-63.3h10.33a3,3,0,0,0,0-6Zm-74.74,63.3V167.43a3,3,0,0,0-6,0V179.1c-31.5-1.5-56.85-26.37-58.4-57.3h9.74a3,3,0,0,0,0-6H55.69c1.55-30.92,26.9-55.79,58.4-57.29v7.81a3,3,0,0,0,6,0V58.51C151.59,60,177,84.88,178.5,115.8H168.32a3,3,0,0,0,0,6H178.5C177,152.73,151.59,177.6,120.09,179.1Z" fill="#000000"/></svg>