<svg t="1705563947116" class="icon" viewBox="0 0 1024 1024" version="1.1" xmlns="http://www.w3.org/2000/svg" p-id="14740" width="40" height="40"><path d="M735.4 597.819l-85.418-39.658a19.261 19.261 0 0 0-22.193 4.328l-35.631 38.176c-5.429 5.817-13.877 7.716-21.254 4.735-31.315-12.656-113.351-51.863-150.351-127.374-3.063-6.252-2.6-13.66 1.309-19.42l24.611-36.27a19.264 19.264 0 0 0 1.75-18.44l-38.958-90.381a19.263 19.263 0 0 0-17.689-11.637h-27.591a19.154 19.154 0 0 0-11.42 3.748c-18.306 13.565-74.343 63.813-36.92 148.42 44.302 100.161 177.208 269.665 360.195 248.476 0 0 74.515-19.062 70.683-88.416-0.389-7.057-4.712-13.31-11.123-16.287z" p-id="14741" fill="black"></path><path d="M832.185 189.758C748.954 106.526 638.293 60.69 520.585 60.69s-228.368 45.837-311.6 129.068S79.917 383.65 79.917 501.357c0 77.265 20.138 152.713 58.382 219.271L62.747 963.311l243.14-77.053c65.4 36.532 139.269 55.768 214.698 55.768 117.707 0 228.368-45.837 311.6-129.068s129.068-193.893 129.068-311.6-45.836-228.369-129.068-311.6z m-311.6 679.462c-67.7 0-133.862-18.54-191.335-53.617l-14.154-8.639-141.37 44.802 43.911-141.05-8.897-14.181c-36.646-58.418-56.017-125.908-56.017-195.178 0-202.84 165.022-367.862 367.862-367.862s367.862 165.022 367.862 367.862S723.425 869.22 520.585 869.22z" p-id="14742" fill="black"></path></svg>